<svg xmlns="http://www.w3.org/2000/svg" xmlns:xlink="http://www.w3.org/1999/xlink" width="240.755" height="63.999" viewBox="0 0 240.755 63.999"><defs><clipPath id="a"><path d="M0,31.568H240.755v-64H0Z" transform="translate(0 32.431)" fill="none"/></clipPath></defs><g transform="translate(0 32.431)"><g transform="translate(0 -31.952)"><path d="M9.679,0-4.248,16.067V0h-5.7V35.878h5.7V24.606L.106,19.57,11.832,35.878h6.986L3.934,15.061,17,0Z" transform="translate(9.943)"/></g><g transform="translate(31.392 -31.952)"><path d="M0,0V35.878H22.637V30.793H5.7V0Z"/></g><g transform="translate(0 -32.431)" clip-path="url(#a)"><g transform="translate(57.522 0.479)"><path d="M11.684,0h5.7V21.919q0,6.862-3.9,10.65T2.687,36.358q-6.891,0-10.791-3.789T-12,21.919V0H-6.31V21.824q0,4.606,2.321,7.027t6.676,2.421a8.825,8.825,0,0,0,6.652-2.421q2.344-2.421,2.344-7.027Z" transform="translate(12.003)"/></g><g transform="translate(92.789 0.478)"><path d="M0,17.7V-18.181H14.07a11.7,11.7,0,0,1,7.919,2.544,8.994,8.994,0,0,1,2.942,7.193q0,5.423-4.02,7.386a7.808,7.808,0,0,1,4.045,3.094,9.593,9.593,0,0,1,1.506,5.492A9.41,9.41,0,0,1,23.4,15.035,12.036,12.036,0,0,1,15.219,17.7Zm13.4-30.84H5.648V-3.12h8.565q4.929,0,4.93-4.939a4.694,4.694,0,0,0-1.531-3.765A6.245,6.245,0,0,0,13.4-13.143M14.787,1.774H5.648v10.84h8.9A6.7,6.7,0,0,0,19,11.246,4.934,4.934,0,0,0,20.626,7.24a5.1,5.1,0,0,0-1.6-4.075,6.239,6.239,0,0,0-4.237-1.391" transform="translate(0 18.181)"/></g><g transform="translate(131.98)"><path d="M8.805,0a17.191,17.191,0,0,1,11.1,3.645,14.5,14.5,0,0,1,5.5,9.786l-5.932.527a10.316,10.316,0,0,0-3.613-6.524,11.135,11.135,0,0,0-7.25-2.35A11.055,11.055,0,0,0,0,8.681q-3.256,3.647-3.254,9.737,0,6.332,3.349,9.833a11.338,11.338,0,0,0,8.567,3.5A11.265,11.265,0,0,0,15.841,29.5a10.063,10.063,0,0,0,3.637-6.283l5.981.527a14.554,14.554,0,0,1-5.6,9.593,17.378,17.378,0,0,1-11.008,3.5A17.489,17.489,0,0,1-4.02,31.9q-5.026-4.94-5.026-13.478,0-8.49,4.979-13.478Q.858,0,8.805,0" transform="translate(9.046)"/></g><g transform="translate(169.117)"><path d="M8.8,0a17.191,17.191,0,0,1,11.1,3.645,14.513,14.513,0,0,1,5.5,9.786l-5.934.527a10.316,10.316,0,0,0-3.613-6.524,11.135,11.135,0,0,0-7.25-2.35A11.055,11.055,0,0,0,0,8.681q-3.253,3.647-3.254,9.737,0,6.332,3.349,9.833a11.338,11.338,0,0,0,8.567,3.5A11.265,11.265,0,0,0,15.84,29.5a10.054,10.054,0,0,0,3.637-6.283l5.981.527a14.547,14.547,0,0,1-5.6,9.593,17.378,17.378,0,0,1-11.008,3.5A17.489,17.489,0,0,1-4.021,31.9q-5.026-4.94-5.024-13.478,0-8.49,4.977-13.478Q.86,0,8.8,0" transform="translate(9.045)"/></g><g transform="translate(206.252)"><path d="M8.8,0a17.191,17.191,0,0,1,11.1,3.645,14.5,14.5,0,0,1,5.5,9.786l-5.932.527a10.316,10.316,0,0,0-3.613-6.524,11.135,11.135,0,0,0-7.25-2.35A11.055,11.055,0,0,0,0,8.681q-3.256,3.647-3.254,9.737,0,6.332,3.349,9.833a11.338,11.338,0,0,0,8.567,3.5A11.265,11.265,0,0,0,15.84,29.5a10.063,10.063,0,0,0,3.637-6.283l5.981.527a14.554,14.554,0,0,1-5.6,9.593,17.378,17.378,0,0,1-11.008,3.5A17.489,17.489,0,0,1-4.021,31.9q-5.026-4.94-5.024-13.478,0-8.49,4.977-13.478Q.858,0,8.8,0" transform="translate(9.045)"/></g></g><g transform="translate(52.783 21.095)"><path d="M2.654,4.058-2.727-4.169V6.168h1.251V-.218l4.13,6.441L6.785-.218V6.168H8.022V-4.169Z" transform="translate(2.727 4.169)"/></g><path d="M33.3,4.956h1.251V-5.231H33.3Z" transform="translate(32.41 26.476)"/><g transform="translate(69.13 21.244)"><path d="M0,0V10.187H6.293v-1.1H1.251V5.462H5.693V4.385H1.251V1.1H6.293V0Z"/></g><g transform="translate(0 -32.431)" clip-path="url(#a)"><g transform="translate(76.019 53.676)"><path d="M2.547,0H3.8V6.96a3.45,3.45,0,0,1-.845,2.479,3.051,3.051,0,0,1-2.323.884,3.132,3.132,0,0,1-2.3-.851A3.392,3.392,0,0,1-2.617,7.15l1.251-.2A2.637,2.637,0,0,0-.788,8.614a1.8,1.8,0,0,0,1.419.594,1.783,1.783,0,0,0,1.427-.566,2.452,2.452,0,0,0,.489-1.654Z" transform="translate(2.617)"/></g><g transform="translate(84.079 53.539)"><path d="M1.81,0A3.9,3.9,0,0,1,4.3.762a2.657,2.657,0,0,1,1.02,2.072l-1.263.081a1.8,1.8,0,0,0-.647-1.342,2.407,2.407,0,0,0-1.569-.483,2.442,2.442,0,0,0-1.618.491A1.591,1.591,0,0,0-.365,2.859,1.44,1.44,0,0,0,.057,3.923a1.848,1.848,0,0,0,.531.312,8.655,8.655,0,0,0,1.521.45A7.823,7.823,0,0,1,4.785,5.707a2.047,2.047,0,0,1,.829,1.812A2.586,2.586,0,0,1,4.6,9.725a4.245,4.245,0,0,1-2.6.736A4.454,4.454,0,0,1-.718,9.67,2.707,2.707,0,0,1-1.859,7.491L-.61,7.424a1.859,1.859,0,0,0,.8,1.417A3.016,3.016,0,0,0,2,9.372,2.888,2.888,0,0,0,3.72,8.914a1.534,1.534,0,0,0,.631-1.328A1.384,1.384,0,0,0,3.9,6.51a1.645,1.645,0,0,0-.584-.326A8.757,8.757,0,0,0,1.66,5.693L.6,5.421a6.451,6.451,0,0,1-.87-.339,2.21,2.21,0,0,1-.991-.817,2.947,2.947,0,0,1-.367-1.375A2.682,2.682,0,0,1-.744.831,3.584,3.584,0,0,1,1.81,0" transform="translate(1.859 0)"/></g><g transform="translate(92.734 53.539)"><path d="M2.46,0A4.825,4.825,0,0,1,5.572,1.022,4.008,4.008,0,0,1,7.093,3.773L5.8,3.9A3.028,3.028,0,0,0,4.69,1.853a3.531,3.531,0,0,0-2.271-.736A3.46,3.46,0,0,0-.244,2.22,4.27,4.27,0,0,0-1.264,5.23,4.214,4.214,0,0,0-.23,8.269,3.544,3.544,0,0,0,2.446,9.344,3.587,3.587,0,0,0,4.69,8.657,3.04,3.04,0,0,0,5.817,6.715l1.291.109A4.1,4.1,0,0,1,5.558,9.48a4.859,4.859,0,0,1-3.071.981,4.888,4.888,0,0,1-3.615-1.4,5.177,5.177,0,0,1-1.4-3.828A5.21,5.21,0,0,1-1.142,1.4,4.868,4.868,0,0,1,2.46,0" transform="translate(2.527 0)"/></g></g><g transform="translate(103.905 21.244)"><path d="M0,0V10.187H6.291v-1.1H1.251V5.462H5.693V4.385H1.251V1.1h5.04V0Z"/></g><g transform="translate(0 -32.431)" clip-path="url(#a)"><g transform="translate(114.68 53.675)"><path d="M0,5.026V-5.163H3.969A4.748,4.748,0,0,1,7.487-3.8,5.044,5.044,0,0,1,8.861-.068,5,5,0,0,1,7.475,3.664,4.806,4.806,0,0,1,3.941,5.026ZM3.982-4.1H1.237V3.964H3.955A3.5,3.5,0,0,0,6.6,2.914,4.133,4.133,0,0,0,7.623-.068a4.124,4.124,0,0,0-1-2.97A3.463,3.463,0,0,0,3.982-4.1" transform="translate(0 5.163)"/></g></g><g transform="translate(125.267 21.244)"><path d="M0,0V10.187H6.346v-1.1h-5.1V0Z"/></g><g transform="translate(132.089 21.067)"><path d="M0,5.112H1.358l1.048-2.3H7.161l1.046,2.3H9.565L4.784-5.252ZM4.784-2.379,6.644,1.708H2.934Z" transform="translate(0 5.252)"/></g><g transform="translate(0 -32.431)" clip-path="url(#a)"><g transform="translate(145.406 53.539)"><path d="M2.46,0A4.828,4.828,0,0,1,5.572,1.022,4.015,4.015,0,0,1,7.093,3.773L5.8,3.9A3.03,3.03,0,0,0,4.688,1.853a3.522,3.522,0,0,0-2.269-.736A3.46,3.46,0,0,0-.244,2.22,4.261,4.261,0,0,0-1.264,5.23,4.222,4.222,0,0,0-.232,8.269,3.551,3.551,0,0,0,2.446,9.344a3.577,3.577,0,0,0,2.242-.687A3.043,3.043,0,0,0,5.817,6.715l1.291.109A4.1,4.1,0,0,1,5.558,9.48a4.863,4.863,0,0,1-3.071.981,4.888,4.888,0,0,1-3.615-1.4,5.177,5.177,0,0,1-1.4-3.828A5.21,5.21,0,0,1-1.142,1.4,4.868,4.868,0,0,1,2.46,0" transform="translate(2.527 0)"/></g></g><path d="M79.35,4.956H80.6V-5.231H79.35Z" transform="translate(77.239 26.476)"/><g transform="translate(160 21.244)"><path d="M0,0V10.187H6.293v-1.1H1.251V5.462H5.693V4.385H1.251V1.1H6.293V0Z"/></g><g transform="translate(0 -32.431)" clip-path="url(#a)"><g transform="translate(167.8 53.675)"><path d="M0,5.026V-5.163H3.8a3.245,3.245,0,0,1,2.208.716,2.5,2.5,0,0,1,.823,2A2.187,2.187,0,0,1,5.679-.287,2.23,2.23,0,0,1,6.836.605a2.821,2.821,0,0,1,.434,1.6A2.611,2.611,0,0,1,6.421,4.29a3.335,3.335,0,0,1-2.263.736ZM3.655-4.06H1.235V-.737H3.994c1.052,0,1.577-.543,1.577-1.634a1.547,1.547,0,0,0-.517-1.245,2.07,2.07,0,0,0-1.4-.444m.464,4.4H1.235V3.923H4.008a2.21,2.21,0,0,0,1.462-.45,1.639,1.639,0,0,0,.535-1.334A1.682,1.682,0,0,0,5.482.8,1.974,1.974,0,0,0,4.118.339" transform="translate(0 5.163)"/></g></g><path d="M89.624,4.956h1.251V-5.231H89.624Z" transform="translate(87.24 26.476)"/><g transform="translate(180.275 21.244)"><path d="M0,0V10.187H6.291v-1.1H1.249V5.462H5.693V4.385H1.249V1.1H6.291V0Z"/></g></g></svg>